<svg width="20" height="20" viewBox="0 0 20 20" fill="none" xmlns="http://www.w3.org/2000/svg">
  <path
    d="M18.1633 2.09295L13.0612 0.170724C12.1429 -0.132785 11.2245 -0.0316156 10.5102 0.474233C10.2041 0.676573 10 0.878913 9.79592 1.08125H5.91837C4.38776 1.08125 3.06122 2.39646 3.06122 3.91401V4.9257C3.06122 5.33038 3.36735 5.73506 3.87755 5.73506C4.38776 5.73506 4.69388 5.33038 4.69388 4.9257V3.91401C4.69388 3.20582 5.30612 2.69997 5.91837 2.69997H9.28572V17.3696H5.91837C5.20408 17.3696 4.69388 16.7626 4.69388 16.1555V15.1439C4.69388 14.7392 4.38776 14.3345 3.87755 14.3345C3.36735 14.3345 3.06122 14.638 3.06122 15.0427V16.0544C3.06122 17.5719 4.28571 18.8871 5.91837 18.8871H9.79592C10 19.0895 10.2041 19.393 10.4082 19.4942C10.9184 19.7977 11.4286 20 12.0408 20C12.3469 20 12.7551 19.8988 13.0612 19.7977L18.1633 17.8754C19.2857 17.4708 20 16.4591 20 15.245V4.62219C20 3.50933 19.1837 2.39646 18.1633 2.09295Z"
    fill="white" />
  <path
    d="M4.38776 11.5017C4.08163 11.8052 4.08163 12.3111 4.38776 12.6146C4.4898 12.7158 4.69388 12.8169 4.89796 12.8169C5.10204 12.8169 5.30612 12.7158 5.40816 12.6146L7.44898 10.5912C7.55102 10.49 7.55102 10.3889 7.65306 10.3889C7.65306 10.2877 7.7551 10.1865 7.7551 10.0854C7.7551 9.98419 7.7551 9.88302 7.65306 9.78185C7.65306 9.68068 7.55102 9.57951 7.44898 9.57951L5.40816 7.55612C5.10204 7.25261 4.59184 7.25261 4.28571 7.55612C3.97959 7.85963 3.97959 8.36548 4.28571 8.66898L5 9.37717H0.816327C0.408163 9.37717 0 9.68068 0 10.1865C0 10.6924 0.306122 10.9959 0.816327 10.9959H5.10204L4.38776 11.5017Z"
    fill="white" />
</svg>