<svg width="24" height="24" viewBox="0 0 24 24" fill="none" xmlns="http://www.w3.org/2000/svg">
<path d="M11.9444 3.08127C11.3293 2.87411 10.6117 3.08127 10.0991 3.49557L6.92096 6.70644C6.20332 7.53506 5.17812 7.94936 4.0504 7.94936C2.92268 7.94936 2 8.77797 2 9.91732V14.0604C2 15.1997 2.92268 16.0283 3.94788 16.0283C4.97308 16.0283 6.1008 16.4426 6.81844 17.2712L9.99656 20.4821C10.3041 20.7928 10.8167 21 11.2268 21C11.4318 21 11.6369 21 11.7394 20.8964C12.3545 20.6893 12.8671 20.1714 12.9696 19.4464C13.2772 17.3748 13.6873 14.3711 13.6873 11.8853C13.6873 9.39943 13.4822 6.60287 13.0722 4.42776C12.9696 3.8063 12.5596 3.28842 11.9444 3.08127Z" fill="white"/>
<path d="M19.8385 4.32414C19.6335 4.01341 19.1209 3.90983 18.8133 4.11699C18.5057 4.32414 18.4032 4.84202 18.6083 5.15275C19.8385 7.01713 20.5561 9.39939 20.5561 11.9888C20.5561 14.5782 19.8385 16.9605 18.6083 18.8248C18.4032 19.1356 18.5057 19.6535 18.8133 19.8606C18.9158 19.9642 19.1209 19.9642 19.2234 19.9642C19.4284 19.9642 19.736 19.8606 19.8385 19.6535C21.2738 17.5819 21.9914 14.8889 21.9914 11.9888C22.0939 9.08866 21.2738 6.39567 19.8385 4.32414Z" fill="white"/>
<path d="M15.8401 6.08502C15.43 6.29217 15.3275 6.70648 15.43 7.12079C16.0452 8.3637 16.3527 10.1245 16.3527 11.9889C16.3527 13.8533 16.0452 15.5105 15.43 16.857C15.225 17.2713 15.43 17.6856 15.8401 17.8927C15.9426 17.9963 16.0452 17.9963 16.1477 17.9963C16.4552 17.9963 16.6603 17.7892 16.8653 17.582C17.583 16.1319 17.993 14.164 17.993 12.0925C17.993 10.0209 17.583 8.05297 16.8653 6.6029C16.6603 6.08502 16.2502 5.87787 15.8401 6.08502Z" fill="white"/>
</svg>

