<svg width="24" height="23" viewBox="0 0 24 23" fill="none" xmlns="http://www.w3.org/2000/svg">
  <g clip-path="url(#clip0_2224_1428)">
    <path fill-rule="evenodd" clip-rule="evenodd"
      d="M8.38894 1.23741C8.60253 1.57596 8.49864 2.02195 8.15688 2.23354L4.26501 4.64317C3.92325 4.85477 3.47305 4.75185 3.25946 4.41329C3.04586 4.07473 3.14975 3.62875 3.49151 3.41715L7.38338 1.00753C7.72514 0.795932 8.17534 0.898851 8.38894 1.23741Z"
      fill="#1C274C" />
    <path fill-rule="evenodd" clip-rule="evenodd"
      d="M15.611 1.2374C15.8246 0.898852 16.2748 0.795932 16.6166 1.00753L20.5084 3.41715C20.8502 3.62875 20.9541 4.07474 20.7405 4.41329C20.5269 4.75185 20.0767 4.85477 19.7349 4.64317L15.8431 2.23354C15.5013 2.02195 15.3974 1.57596 15.611 1.2374Z"
      fill="#1C274C" />
    <path fill-rule="evenodd" clip-rule="evenodd"
      d="M11.9999 22.1025C16.8361 22.1025 20.7566 18.2187 20.7566 13.4278C20.7566 8.63691 16.8361 4.75314 11.9999 4.75314C7.16378 4.75314 3.24329 8.63691 3.24329 13.4278C3.24329 18.2187 7.16378 22.1025 11.9999 22.1025ZM11.9999 8.8495C12.4029 8.8495 12.7296 9.17315 12.7296 9.57239V13.1284L14.9483 15.3263C15.2333 15.6086 15.2333 16.0663 14.9483 16.3486C14.6633 16.6309 14.2013 16.6309 13.9163 16.3486L11.4839 13.939C11.3471 13.8034 11.2702 13.6196 11.2702 13.4278V9.57239C11.2702 9.17315 11.5969 8.8495 11.9999 8.8495Z"
      fill="#1C274C" />
  </g>
  <defs>
    <clipPath id="clip0_2224_1428">
      <rect width="23.703" height="21.2049" fill="white" transform="translate(0.148438 0.897552)" />
    </clipPath>
  </defs>
</svg>