<svg width="20" height="21" viewBox="0 0 20 21" fill="none" xmlns="http://www.w3.org/2000/svg">
  <g clip-path="url(#clip0_2224_1434)">
    <path
      d="M0 10.5C0 5.78595 -1.19209e-07 3.42893 1.46447 1.96447C2.92893 0.5 5.28595 0.5 10 0.5C14.714 0.5 17.0711 0.5 18.5355 1.96447C20 3.42893 20 5.78595 20 10.5C20 15.214 20 17.5711 18.5355 19.0355C17.0711 20.5 14.714 20.5 10 20.5C5.28595 20.5 2.92893 20.5 1.46447 19.0355C-1.19209e-07 17.5711 0 15.214 0 10.5Z"
      fill="#1C274C" />
    <path fill-rule="evenodd" clip-rule="evenodd"
      d="M10 6.54166C10.3452 6.54166 10.625 6.82148 10.625 7.16666V10.2411L12.5253 12.1414C12.7693 12.3855 12.7693 12.7812 12.5253 13.0252C12.2812 13.2693 11.8855 13.2693 11.6414 13.0252L9.55808 10.9419C9.44083 10.8247 9.375 10.6657 9.375 10.5V7.16666C9.375 6.82148 9.65483 6.54166 10 6.54166Z"
      fill="white" />
  </g>
  <defs>
    <clipPath id="clip0_2224_1434">
      <rect width="20" height="20" fill="white" transform="translate(0 0.5)" />
    </clipPath>
  </defs>
</svg>