<svg width="20" height="14" viewBox="0 0 20 14" fill="none" xmlns="http://www.w3.org/2000/svg">
  <path
    d="M7.75 7C7.75 8.24264 8.75736 9.25 10 9.25C11.2426 9.25 12.25 8.24264 12.25 7C12.25 5.75736 11.2426 4.75 10 4.75C8.75736 4.75 7.75 5.75736 7.75 7Z"
    fill="#1C274C" />
  <path fill-rule="evenodd" clip-rule="evenodd"
    d="M1.77772 13.3259C2.78661 14 4.19108 14 7 14L13 14C15.8089 14 17.2134 14 18.2223 13.3259C18.659 13.034 19.034 12.659 19.3259 12.2223C20 11.2134 20 9.80892 20 7C20 4.19107 20 2.78661 19.3259 1.77772C19.034 1.34096 18.659 0.965955 18.2223 0.674121C17.2134 0 15.8089 0 13 0H7C4.19108 0 2.78661 0 1.77772 0.674122C1.34096 0.965956 0.965956 1.34096 0.674121 1.77772C0 2.78661 0 4.19108 0 7C0 9.80892 0 11.2134 0.674122 12.2223C0.965956 12.659 1.34096 13.034 1.77772 13.3259ZM10 10.75C7.92893 10.75 6.25 9.07107 6.25 7C6.25 4.92893 7.92893 3.25 10 3.25C12.0711 3.25 13.75 4.92893 13.75 7C13.75 9.07107 12.0711 10.75 10 10.75ZM3.5 10.75C3.08579 10.75 2.75 10.4142 2.75 10L2.75 4C2.75 3.58579 3.08579 3.25 3.5 3.25C3.91421 3.25 4.25 3.58579 4.25 4L4.25 10C4.25 10.4142 3.91421 10.75 3.5 10.75ZM15.75 10C15.75 10.4142 16.0858 10.75 16.5 10.75C16.9142 10.75 17.25 10.4142 17.25 10V4C17.25 3.58579 16.9142 3.25 16.5 3.25C16.0858 3.25 15.75 3.58579 15.75 4V10Z"
    fill="#1C274C" />
</svg>