<svg width="16" height="20" viewBox="0 0 16 20" fill="none" xmlns="http://www.w3.org/2000/svg">
  <path
    d="M1.12817 6.15391C1.12817 8.41032 1.12817 11.5898 1.12817 13.1283C1.23074 14.4616 1.3333 16.2052 1.43587 17.436C1.53843 18.8719 2.7692 20.0001 4.2051 20.0001H11.7948C13.2307 20.0001 14.4615 18.8719 14.5641 17.436C14.6666 16.2052 14.7692 14.4616 14.8718 13.1283C14.9743 11.5898 14.8718 8.41032 14.8718 6.15391H1.12817Z"
    fill="#EF6262" />
  <path
    d="M15.1795 3.07698H12.6154L11.7949 1.53852C11.2821 0.615446 10.359 6.10352e-05 9.33333 6.10352e-05H6.8718C5.84615 6.10352e-05 4.82051 0.615446 4.41026 1.53852L3.38462 3.07698H0.820513C0.410257 3.07698 0 3.48724 0 3.8975C0 4.30775 0.410257 4.71801 0.820513 4.71801H15.1795C15.5897 4.71801 16 4.41032 16 3.8975C16 3.38468 15.5897 3.07698 15.1795 3.07698ZM5.12821 3.07698L5.64103 2.25647C5.84615 1.84621 6.25641 1.53852 6.76923 1.53852H9.23077C9.74359 1.53852 10.1538 1.74365 10.359 2.25647L10.8718 3.07698H5.12821Z"
    fill="#EF6262" />
</svg>