<svg width="20" height="21" viewBox="0 0 20 21" fill="none" xmlns="http://www.w3.org/2000/svg">
  <path fill-rule="evenodd" clip-rule="evenodd"
    d="M10 20.5C15.5228 20.5 20 16.0228 20 10.5C20 4.97715 15.5228 0.5 10 0.5C4.47715 0.5 0 4.97715 0 10.5C0 16.0228 4.47715 20.5 10 20.5ZM10.75 4.5C10.75 4.08579 10.4142 3.75 10 3.75C9.58579 3.75 9.25 4.08579 9.25 4.5V4.81673C7.61957 5.10867 6.25 6.33361 6.25 8C6.25 9.91715 8.06278 11.25 10 11.25C11.3765 11.25 12.25 12.1557 12.25 13C12.25 13.8443 11.3765 14.75 10 14.75C8.62351 14.75 7.75 13.8443 7.75 13C7.75 12.5858 7.41421 12.25 7 12.25C6.58579 12.25 6.25 12.5858 6.25 13C6.25 14.6664 7.61957 15.8913 9.25 16.1833V16.5C9.25 16.9142 9.58579 17.25 10 17.25C10.4142 17.25 10.75 16.9142 10.75 16.5V16.1833C12.3804 15.8913 13.75 14.6664 13.75 13C13.75 11.0828 11.9372 9.75 10 9.75C8.62351 9.75 7.75 8.84427 7.75 8C7.75 7.15573 8.62351 6.25 10 6.25C11.3765 6.25 12.25 7.15573 12.25 8C12.25 8.41421 12.5858 8.75 13 8.75C13.4142 8.75 13.75 8.41421 13.75 8C13.75 6.33361 12.3804 5.10867 10.75 4.81673V4.5Z"
    fill="#1C274C" />
</svg>