<svg width="18" height="20" viewBox="0 0 18 20" fill="none" xmlns="http://www.w3.org/2000/svg">
  <path fill-rule="evenodd" clip-rule="evenodd"
    d="M9 20C13.8362 20 17.7567 16.1162 17.7567 11.3253C17.7567 6.53446 13.8362 2.65069 9 2.65069C4.16383 2.65069 0.243339 6.53446 0.243339 11.3253C0.243339 16.1162 4.16383 20 9 20ZM9 6.74705C9.40302 6.74705 9.72972 7.0707 9.72972 7.46994V11.0259L11.9484 13.2238C12.2334 13.5061 12.2334 13.9638 11.9484 14.2461C11.6634 14.5284 11.2014 14.5284 10.9164 14.2461L8.48401 11.8365C8.34716 11.7009 8.27028 11.5171 8.27028 11.3253V7.46994C8.27028 7.0707 8.59699 6.74705 9 6.74705Z"
    fill="#EF6262" />
  <path fill-rule="evenodd" clip-rule="evenodd"
    d="M5.2405 0.339857C5.45409 0.678412 5.3502 1.1244 5.00844 1.33599L1.11657 3.74562C0.774814 3.95722 0.324612 3.8543 0.111016 3.51574C-0.102581 3.17718 0.00131337 2.7312 0.343069 2.5196L4.23494 0.109976C4.5767 -0.10162 5.0269 0.00130107 5.2405 0.339857Z"
    fill="#EF6262" />
  <path fill-rule="evenodd" clip-rule="evenodd"
    d="M12.7595 0.339855C12.9731 0.00130004 13.4233 -0.10162 13.7651 0.109977L17.6569 2.5196C17.9987 2.7312 18.1026 3.17719 17.889 3.51574C17.6754 3.8543 17.2252 3.95722 16.8834 3.74562L12.9916 1.33599C12.6498 1.1244 12.5459 0.67841 12.7595 0.339855Z"
    fill="#EF6262" />
</svg>