<svg width="17" height="14" viewBox="0 0 17 14" fill="none" xmlns="http://www.w3.org/2000/svg">
  <path
    d="M4.04889 4.95272C4.33837 4.65645 4.33287 4.18161 4.0366 3.89213C3.74033 3.60265 3.26549 3.60816 2.97601 3.90442L4.04889 4.95272ZM0.46351 6.47585C0.174031 6.77212 0.179535 7.24696 0.475803 7.53644C0.772072 7.82592 1.24691 7.82042 1.53639 7.52415L0.46351 6.47585ZM1.53645 6.47583C1.24697 6.17957 0.772133 6.17406 0.475864 6.46354C0.179596 6.75302 0.174092 7.22786 0.463571 7.52413L1.53645 6.47583ZM2.97607 10.0956C3.26555 10.3918 3.74039 10.3973 4.03666 10.1079C4.33293 9.81837 4.33843 9.34353 4.04895 9.04726L2.97607 10.0956ZM0.999959 6.25C0.585745 6.25 0.249959 6.58579 0.249959 7C0.249959 7.41421 0.585745 7.75 0.999959 7.75V6.25ZM12.6666 7.75C13.0808 7.75 13.4166 7.41421 13.4166 7C13.4166 6.58579 13.0808 6.25 12.6666 6.25V7.75ZM2.97601 3.90442L0.46351 6.47585L1.53639 7.52415L4.04889 4.95272L2.97601 3.90442ZM0.463571 7.52413L2.97607 10.0956L4.04895 9.04726L1.53645 6.47583L0.463571 7.52413ZM0.999959 7.75L12.6666 7.75V6.25L0.999959 6.25V7.75Z"
    fill="white" />
  <path
    d="M6 9.57143C6 11.465 7.49238 13 9.33333 13H12.6667C14.5076 13 16 11.465 16 9.57143V4.42857C16 2.53502 14.5076 1 12.6667 1H9.33333C7.49238 1 6 2.53502 6 4.42857"
    stroke="white" stroke-width="1.5" stroke-linecap="round" stroke-linejoin="round" />
</svg>