<svg width="14" height="14" viewBox="0 0 14 14" fill="none" xmlns="http://www.w3.org/2000/svg">
  <path fill-rule="evenodd" clip-rule="evenodd"
    d="M6.4 13C6.0858 13 5.81776 12.7726 5.76658 12.4626C5.71948 12.2118 5.5389 12.0068 5.29601 11.9286C5.09809 11.8606 4.90457 11.7805 4.71658 11.6886C4.49288 11.5742 4.22452 11.5913 4.01715 11.7331C3.7662 11.9136 3.42147 11.8857 3.20286 11.6671L2.35258 10.8169C2.12375 10.588 2.09401 10.2272 2.28229 9.964C2.4275 9.75185 2.44841 9.47833 2.33715 9.24657C2.26384 9.08556 2.19918 8.92076 2.14344 8.75286C2.06361 8.48827 1.84325 8.29005 1.57172 8.23857C1.24428 8.18625 1.00255 7.90502 1.00001 7.57343V6.50971C0.998265 6.1275 1.27433 5.80058 1.65144 5.73829C1.93752 5.68387 2.1764 5.48792 2.28572 5.218C2.31829 5.142 2.35258 5.06657 2.38858 4.99171C2.53397 4.71181 2.51389 4.37467 2.33629 4.114C2.1142 3.80532 2.1483 3.38122 2.41686 3.112L3.04172 2.48714C3.34991 2.17885 3.83596 2.13895 4.19029 2.39286L4.21001 2.40657C4.4746 2.58465 4.81128 2.6169 5.10486 2.49229C5.41894 2.37924 5.65041 2.10935 5.71429 1.78171L5.72286 1.75257C5.79344 1.31883 6.16799 1.00018 6.60743 1H7.36172C7.81302 0.999794 8.19818 1.3262 8.272 1.77143L8.28572 1.83143C8.3463 2.14529 8.56579 2.40504 8.86515 2.51714C9.15364 2.64097 9.48542 2.60863 9.74457 2.43143L9.78743 2.40057C10.151 2.13858 10.6508 2.17887 10.9677 2.49571L11.5429 3.07171C11.8311 3.36157 11.8673 3.81737 11.6286 4.14914C11.4415 4.42645 11.4176 4.78279 11.566 5.08257L11.6029 5.16829C11.723 5.46096 11.9829 5.67313 12.2937 5.73229C12.6999 5.7985 12.9987 6.14873 13 6.56029V7.51429C12.9999 7.87718 12.7374 8.18678 12.3794 8.24629C12.085 8.30274 11.8452 8.51594 11.7546 8.80171C11.7146 8.916 11.67 9.03029 11.6209 9.14457C11.5065 9.39568 11.5319 9.68831 11.6877 9.916C11.8934 10.2021 11.8615 10.5951 11.6123 10.8443L10.8143 11.6431C10.5861 11.8713 10.2262 11.9007 9.964 11.7126C9.74513 11.563 9.46159 11.5466 9.22686 11.6697C9.05962 11.7526 8.88793 11.8261 8.71257 11.89C8.46742 11.9746 8.28669 12.1844 8.23943 12.4394C8.18946 12.7602 7.91438 12.9976 7.58972 13H6.4Z"
    stroke="white" stroke-width="1.5" stroke-linecap="round" stroke-linejoin="round" />
  <path fill-rule="evenodd" clip-rule="evenodd"
    d="M8.99967 7.00008C8.99967 8.10449 8.10437 8.99979 6.99996 8.99979C5.89555 8.99979 5.00024 8.10449 5.00024 7.00008C5.00024 5.89567 5.89555 5.00037 6.99996 5.00037C8.10437 5.00037 8.99967 5.89567 8.99967 7.00008Z"
    stroke="white" stroke-width="1.5" stroke-linecap="round" stroke-linejoin="round" />
</svg>