<svg width="21" height="17" viewBox="0 0 21 17" fill="none" xmlns="http://www.w3.org/2000/svg">
  <path
    d="M8 0H12C15.7712 0 17.6569 0 18.8284 1.17157C19.672 2.01511 19.9082 3.22882 19.9743 5.25H0.0257164C0.0918467 3.22882 0.328032 2.01511 1.17157 1.17157C2.34315 0 4.22876 0 8 0Z"
    fill="white" />
  <path fill-rule="evenodd" clip-rule="evenodd"
    d="M19.9995 8.81752L19.591 8.40901C18.7123 7.53033 17.2877 7.53033 16.409 8.40901L15.6076 9.21045C15.2878 8.35728 14.4648 7.75 13.5 7.75C12.2574 7.75 11.25 8.75736 11.25 10V11.7638C10.7601 11.8183 10.2847 12.0334 9.90901 12.409C9.03033 13.2877 9.03033 14.7123 9.90901 15.591L10.318 16H8C4.22876 16 2.34315 16 1.17157 14.8284C0 13.6569 0 11.7712 0 8C0 7.55807 0 7.14203 0.00188529 6.75H19.9981C20 7.14203 20 7.55807 20 8C20 8.28296 20 8.5553 19.9995 8.81752ZM4 11.25C3.58579 11.25 3.25 11.5858 3.25 12C3.25 12.4142 3.58579 12.75 4 12.75H8C8.41421 12.75 8.75 12.4142 8.75 12C8.75 11.5858 8.41421 11.25 8 11.25H4Z"
    fill="white" />
  <path fill-rule="evenodd" clip-rule="evenodd"
    d="M13.5 9.25C13.9142 9.25 14.25 9.58579 14.25 10V14.1893L14.9697 13.4697C15.2626 13.1768 15.7374 13.1768 16.0303 13.4697C16.3232 13.7626 16.3232 14.2374 16.0303 14.5303L14.0303 16.5303C13.7374 16.8232 13.2626 16.8232 12.9697 16.5303L10.9697 14.5303C10.6768 14.2374 10.6768 13.7626 10.9697 13.4697C11.2626 13.1768 11.7374 13.1768 12.0303 13.4697L12.75 14.1893V10C12.75 9.58579 13.0858 9.25 13.5 9.25ZM17.4697 9.46967C17.7626 9.17678 18.2374 9.17678 18.5303 9.46967L20.5303 11.4697C20.8232 11.7626 20.8232 12.2374 20.5303 12.5303C20.2374 12.8232 19.7626 12.8232 19.4697 12.5303L18.75 11.8107V16C18.75 16.4142 18.4142 16.75 18 16.75C17.5858 16.75 17.25 16.4142 17.25 16V11.8107L16.5303 12.5303C16.2374 12.8232 15.7626 12.8232 15.4697 12.5303C15.1768 12.2374 15.1768 11.7626 15.4697 11.4697L17.4697 9.46967Z"
    fill="white" />
</svg>