<svg width="20" height="18" viewBox="0 0 20 18" fill="none" xmlns="http://www.w3.org/2000/svg">
<path d="M11.0256 3.6C11.0256 5.58823 9.41846 7.2 7.4359 7.2C5.45334 7.2 3.84615 5.58823 3.84615 3.6C3.84615 1.61177 5.45334 0 7.4359 0C9.41846 0 11.0256 1.61177 11.0256 3.6Z" fill="#1D5B79"/>
<path fill-rule="evenodd" clip-rule="evenodd" d="M6.72483e-08 3.6C6.72483e-08 3.17395 0.344396 2.82857 0.769231 2.82857H3.84615C4.27099 2.82857 4.61539 3.17395 4.61539 3.6C4.61539 4.02605 4.27099 4.37143 3.84615 4.37143H0.769231C0.344396 4.37143 6.72483e-08 4.02605 6.72483e-08 3.6Z" fill="#1D5B79"/>
<path fill-rule="evenodd" clip-rule="evenodd" d="M12.3077 3.6C12.3077 3.17395 12.6521 2.82857 13.0769 2.82857L19.2308 2.82857C19.6556 2.82857 20 3.17395 20 3.6C20 4.02605 19.6556 4.37143 19.2308 4.37143L13.0769 4.37143C12.6521 4.37143 12.3077 4.02605 12.3077 3.6Z" fill="#1D5B79"/>
<path d="M8.97436 14.4C8.97436 16.3882 10.5815 18 12.5641 18C14.5467 18 16.1538 16.3882 16.1538 14.4C16.1538 12.4118 14.5467 10.8 12.5641 10.8C10.5815 10.8 8.97436 12.4118 8.97436 14.4Z" fill="#1D5B79"/>
<path fill-rule="evenodd" clip-rule="evenodd" d="M20 14.4C20 13.974 19.6556 13.6286 19.2308 13.6286H16.1538C15.729 13.6286 15.3846 13.974 15.3846 14.4C15.3846 14.826 15.729 15.1714 16.1538 15.1714H19.2308C19.6556 15.1714 20 14.826 20 14.4Z" fill="#1D5B79"/>
<path fill-rule="evenodd" clip-rule="evenodd" d="M7.69231 14.4C7.69231 13.974 7.34791 13.6286 6.92308 13.6286L0.769231 13.6286C0.344396 13.6286 3.71402e-08 13.974 0 14.4C-3.71402e-08 14.826 0.344396 15.1714 0.769231 15.1714L6.92308 15.1714C7.34791 15.1714 7.69231 14.826 7.69231 14.4Z" fill="#1D5B79"/>
</svg>
