<svg width="20" height="15" viewBox="0 0 20 15" fill="none" xmlns="http://www.w3.org/2000/svg">
  <path fill-rule="evenodd" clip-rule="evenodd"
    d="M8.66688 1.13443L8.16497 0.779221C7.44862 0.272253 6.59264 0 5.71504 0H5.10257C4.69838 0 4.29009 0.0254873 3.90915 0.160595C1.52645 1.00566 -0.112512 4.09504 0.00603676 11.1026C0.0299222 12.5145 0.360299 14.075 1.63423 14.6842C2.03121 14.8741 2.49667 15 3.02671 15C3.66273 15 4.1678 14.8187 4.55763 14.5632C4.96641 14.2953 5.32633 13.9471 5.68612 13.599C6.13071 13.1688 6.57511 12.7389 7.11125 12.4609C7.69519 12.1581 8.34336 12 9.00115 12H10.9989C11.6566 12 12.3048 12.1581 12.8888 12.4609C13.4249 12.7389 13.8693 13.1688 14.3139 13.599C14.6737 13.9471 15.0336 14.2953 15.4424 14.5632C15.8322 14.8187 16.3373 15 16.9733 15C17.5033 15 17.9688 14.8741 18.3658 14.6842C19.6397 14.075 19.9701 12.5145 19.994 11.1026C20.1125 4.09503 18.4735 1.00566 16.0908 0.160592C15.7099 0.0254871 15.3016 0 14.8974 0H14.2849C13.4074 0 12.5514 0.272253 11.8351 0.779221L11.3332 1.13441C10.9434 1.41029 10.4776 1.55844 10 1.55844C9.52247 1.55844 9.05668 1.41029 8.66688 1.13443ZM14.75 4C15.1642 4 15.5 4.33579 15.5 4.75C15.5 5.16421 15.1642 5.5 14.75 5.5C14.3358 5.5 14 5.16421 14 4.75C14 4.33579 14.3358 4 14.75 4ZM5.5 4.25C5.91421 4.25 6.25 4.58579 6.25 5V5.75H7C7.41421 5.75 7.75 6.08579 7.75 6.5C7.75 6.91421 7.41421 7.25 7 7.25H6.25V8C6.25 8.41421 5.91421 8.75 5.5 8.75C5.08579 8.75 4.75 8.41421 4.75 8V7.25H4C3.58579 7.25 3.25 6.91421 3.25 6.5C3.25 6.08579 3.58579 5.75 4 5.75H4.75V5C4.75 4.58579 5.08579 4.25 5.5 4.25ZM17 6.25C17 6.66421 16.6642 7 16.25 7C15.8358 7 15.5 6.66421 15.5 6.25C15.5 5.83579 15.8358 5.5 16.25 5.5C16.6642 5.5 17 5.83579 17 6.25ZM13.25 7C13.6642 7 14 6.66421 14 6.25C14 5.83579 13.6642 5.5 13.25 5.5C12.8358 5.5 12.5 5.83579 12.5 6.25C12.5 6.66421 12.8358 7 13.25 7ZM15.5 7.75C15.5 7.33579 15.1642 7 14.75 7C14.3358 7 14 7.33579 14 7.75C14 8.16421 14.3358 8.5 14.75 8.5C15.1642 8.5 15.5 8.16421 15.5 7.75Z"
    fill="white" />
</svg>