<svg width="16" height="22" viewBox="0 0 16 22" fill="none" xmlns="http://www.w3.org/2000/svg">
  <path fill-rule="evenodd" clip-rule="evenodd"
    d="M11.9925 1.01655C11.927 1.11481 11.861 1.23414 11.7998 1.34477L11.4773 1.92766L8.64966 3.31736C8.57348 3.3548 8.52663 3.37783 8.48186 3.40082C6.85599 4.2357 5.71047 5.80449 5.36562 7.63376C5.35611 7.68419 5.34708 7.73684 5.33217 7.82378L5.33094 7.83097C5.31501 7.92385 5.30798 7.96477 5.30076 8.00426C5.03456 9.45994 4.3439 10.7884 3.32835 11.8102C3.30083 11.8379 3.27207 11.8662 3.20619 11.9309L2.4018 12.7219C1.89777 13.2174 1.49146 13.617 1.18768 13.9606C0.87759 14.3115 0.627581 14.6545 0.477341 15.049C0.0761849 16.1023 0.211185 17.2961 0.840684 18.2292C1.07679 18.5791 1.39871 18.8547 1.7799 19.1229C2.15313 19.3854 2.63864 19.6779 3.24012 20.0402L3.95314 20.4697C4.55438 20.8319 5.03997 21.1244 5.44477 21.3306C5.85683 21.5404 6.25155 21.6965 6.67023 21.7359C7.78767 21.8408 8.8691 21.3508 9.5501 20.452C9.80376 20.1172 9.96272 19.7204 10.0978 19.2682C10.2308 18.8231 10.359 18.2574 10.5185 17.5532L10.7726 16.432C10.7934 16.3402 10.8025 16.2998 10.8118 16.2608C11.1543 14.8233 11.9137 13.5374 12.9809 12.5762C13.0098 12.5501 13.04 12.5235 13.1092 12.4626L13.1147 12.4578C13.1793 12.401 13.2187 12.3662 13.2562 12.3321C14.614 11.095 15.3318 9.27782 15.2136 7.41833C15.2103 7.36709 15.206 7.31379 15.199 7.2258L14.9373 3.95872L15.2924 3.31688C15.3496 3.21362 15.4119 3.10111 15.4581 2.99909C15.5106 2.88316 15.5692 2.72518 15.5779 2.53239C15.5895 2.27496 15.5213 2.02022 15.3826 1.80305C15.2787 1.64041 15.149 1.53284 15.0456 1.45865C14.9547 1.39336 14.8445 1.32701 14.7434 1.26613L13.928 0.774952C13.8197 0.709695 13.7029 0.63931 13.5971 0.586938C13.4778 0.527912 13.3127 0.46026 13.109 0.448044C12.8392 0.431862 12.5715 0.503551 12.3459 0.652365C12.1756 0.764701 12.0663 0.905813 11.9925 1.01655ZM11.983 3.35048L13.4548 4.23707L13.7032 7.33815C13.7083 7.40209 13.7115 7.44144 13.7137 7.47153L12.6585 7.82323C12.0296 8.03287 11.3373 7.9094 10.8196 7.49527C9.76752 6.65357 8.32202 6.50043 7.1169 7.103L7.05722 7.13283C7.44894 6.08929 8.19979 5.23186 9.16705 4.73518C9.19867 4.71894 9.23306 4.70201 9.31818 4.66017L11.983 3.35048Z"
    fill="white" />
</svg>