<svg width="20" height="21" viewBox="0 0 20 21" fill="none" xmlns="http://www.w3.org/2000/svg">
  <path
    d="M19.8844 13.7984C19.7278 15.5315 19.476 16.9398 19.1697 18.1963C18.9655 19.4529 17.7403 20.5 16.4131 20.5H14.7795C13.8606 20.5 13.1459 19.767 13.1459 18.8246V14.5314C13.1459 13.4843 12.3291 12.6466 11.3081 12.6466H8.95983C7.93884 12.6466 7.12205 13.4843 7.12205 14.5314V18.8246C7.12205 19.767 6.40736 20.5 5.48847 20.5H3.54859C2.2213 20.5 1.09821 19.5576 0.791915 18.1963C0.485618 16.8351 0.22005 15.5327 0.0772221 13.7984C-0.104045 11.5974 0.0772221 9.50524 0.179321 8.14398C0.179321 7.30628 0.689816 6.46859 1.40451 5.94503L8.55144 1.02356C8.95983 0.709424 9.47033 0.5 9.98082 0.5C10.4913 0.5 11.1039 0.709424 11.5123 1.02356L18.6592 5.94503C19.3739 6.46859 19.8844 7.30628 19.8844 8.14398C19.9865 9.50524 20.0831 11.5993 19.8844 13.7984Z"
    fill="white" />
</svg>